# xmcd CD database file
#
# Track frame offsets:
#	150
#	3553
#	15108
#	28082
#	45529
#	57452
#	73255
#	88341
#	103719
#	116221
#	133262
#	149177
#	166800
#	174623
#	188271
#
# Disc length: 2701 seconds
#
# Revision: 0
# Processed by: cddbd v1.5.2PL0 Copyright (c) Steve Scherf et al.
# Submitted via: CDex 1.79
#
DISCID=d60a8b0f
DTITLE=Kevin Fowler - How Country Are Ya?
DYEAR=2014
DGENRE=Country
TTITLE0=Intro
TTITLE1=How Country Are Ya?
TTITLE2=Guitars and Guns (featuring Cody Johnson)
TTITLE3=Before Somebody Gets Hurt (featuring Amy Rankin)
TTITLE4=The Weekend
TTITLE5=If I Could Make A Livin` Drinkin?
TTITLE6=Panhandle Poorboy
TTITLE7=Borracho Grande (featuring Los Texmaniacs)
TTITLE8=Love Song
TTITLE9=Habit I Can`t Break
TTITLE10=The Girls I Go With
TTITLE11=Beer Me
TTITLE12=Mousturdonus [Instrumental]
TTITLE13=Whiskey And I
TTITLE14=Chicken Wing (featuring Davin James)
EXTD=YEAR: 2014
EXTT0=
EXTT1=
EXTT2=
EXTT3=
EXTT4=
EXTT5=
EXTT6=
EXTT7=
EXTT8=
EXTT9=
EXTT10=
EXTT11=
EXTT12=
EXTT13=
EXTT14=
PLAYORDER=
